<svg id="Layer_1" enable-background="new 0 0 512 512" height="512" viewBox="0 0 512 512" width="512" xmlns="http://www.w3.org/2000/svg"><g><g><path d="m502 161.595h-.041v-.001-71.594h.041c4.17 0 7.902-2.587 9.364-6.492 1.463-3.905.35-8.308-2.794-11.047l-80.326-70c-3.768-3.281-9.376-3.281-13.14 0l-80.328 70c-3.145 2.739-4.258 7.142-2.795 11.047 1.462 3.905 5.194 6.492 9.364 6.492h.041v71.594.001h-.041c-5.522 0-10 4.478-10 10v80.002c0 5.522 4.478 10 10 10h.041v60.001h-80.406v-30.002c0-5.522-4.477-10-10-10h-35.184v-29.999c0-5.522-4.477-10-10-10h-150.612c-5.523 0-10 4.478-10 10v29.999h-35.184c-5.523 0-10 4.478-10 10v40c0 5.522 4.477 10 10 10h10.083v100.004h-10.083c-5.523 0-10 4.478-10 10v50.4c0 5.522 4.477 10 10 10h381.551 100.407c5.522 0 10-4.478 10-10v-240.403h.042c5.522 0 10-4.478 10-10v-80.002c0-5.523-4.478-10-10-10zm-10 80.002h-140.655v-20.001h.001 140.654zm0-60.002v20.001h-140.654-.001v-20.001zm-60.208-20h-20.238v-.001-31.593h20.238v31.594c0-.001 0-.001 0 0zm-10.119-138.33 53.63 46.735h-107.26zm-60.287 138.329v-71.594h120.572v71.594.001h-30.167v-.001-41.593c0-5.522-4.478-10-10-10h-40.238c-5.522 0-10 4.478-10 10v41.593.001zm20.165 180.004v19.999h-140.653v-20.001h10.043c.013 0 .026.002.039.002zm0 150.402h-20.165v-30.4h20.165zm-301.221-30.4v30.4h-20.165v-30.4zm20 0h20.165v30.399.001h-20.165zm40.164 30.399v-30.399h120.563v30.4zm40.239-50.399h-40.239v-60.003h40.239zm100.324 20h20.165v30.4h-20.165zm40.165 0h20.164v30.4h-20.164zm40.247-60.001h-7.802c-5.522 0-10 4.478-10 10s4.478 10 10 10h7.802v20.001h-120.571v-20.001h7.651c5.523 0 10-4.478 10-10s-4.477-10-10-10h-7.651v-20.002h120.571zm-341.469-80.003v-20h65.487c5.523 0 10-4.478 10-10s-4.477-10-10-10h-20.303v-19.999h130.613v19.999h-20.31c-5.523 0-10 4.478-10 10s4.477 10 10 10h65.493v20zm20.083 100.003h15.101c5.523 0 10-4.478 10-10s-4.477-10-10-10h-15.101v-20.002h15.101c5.523 0 10-4.478 10-10s-4.477-10-10-10h-15.101v-20.001h180.815v100.004h-20.165v-70.003c0-5.522-4.477-10-10-10h-60.239c-5.523 0-10 4.478-10 10v70.003h-80.411zm-20.083 40.001h20.165v30.4h-20.165zm461.959 30.4h-80.407v-40.4c0-5.522-4.478-10-10-10h-10.082v-60.003h10.082c5.522 0 10-4.478 10-10v-29.999h40.24c5.522 0 10-4.478 10-10s-4.478-10-10-10h-50.24-30.165v-60.001h120.572z"/><path d="m130.49 281.596h-.007c-5.523 0-9.996 4.478-9.996 10s4.48 10 10.003 10 10-4.478 10-10-4.477-10-10-10z"/></g></g></svg>